<svg width="140" height="53" viewBox="0 0 140 53" fill="none" xmlns="http://www.w3.org/2000/svg">
<path d="M37.0625 24.125H30.3281L29.8438 21.0625H25.4531L24.9219 24.125H18.1875L23.9844 0H31.9531L37.0625 24.125ZM29.0781 15.8906L28.6562 13.0781C28.6458 13.0677 28.625 12.9271 28.5938 12.6562C28.5729 12.4271 28.4635 11.5208 28.2656 9.9375C28.2448 9.76042 28.2188 9.52083 28.1875 9.21875C28.1562 8.90625 28.1146 8.51562 28.0625 8.04688L27.8594 5.76562C27.8385 5.98438 27.8073 6.22917 27.7656 6.5C27.7344 6.77083 27.6979 7.06771 27.6562 7.39062C27.5833 8.03646 27.5312 8.48438 27.5 8.73438C27.4688 8.98438 27.4479 9.13542 27.4375 9.1875L26.9844 12.1094L26.3281 15.8906H29.0781Z" fill="#1E00FF"/>
<path d="M56.125 24.125H49.0781L45.8594 15.5312C45.8281 15.3854 45.7708 15.1927 45.6875 14.9531C45.6146 14.7135 45.5208 14.4271 45.4062 14.0938L45.4531 15.6875V24.125H38.9688V0H45.6406C48.5781 0 50.776 0.578125 52.2344 1.73438C54.0885 3.21354 55.0156 5.31771 55.0156 8.04688C55.0156 10.9635 53.7708 12.9792 51.2812 14.0938L56.125 24.125ZM45.4844 11.1719H45.9219C46.6719 11.1719 47.2969 10.8854 47.7969 10.3125C48.2969 9.73958 48.5469 9.01042 48.5469 8.125C48.5469 6.32292 47.6042 5.42188 45.7188 5.42188H45.4844V11.1719Z" fill="#1E00FF"/>
<path d="M66.9219 24.125H60.4062V5.78125H56.8125V0H70.6562V5.78125H66.9219V24.125Z" fill="#1E00FF"/>
<path d="M18.3438 39.7031C18.3438 43.3802 17.5052 46.3698 15.8281 48.6719C14.1615 50.9635 11.9896 52.1094 9.3125 52.1094C6.9375 52.1094 4.90104 51.2292 3.20312 49.4688C1.06771 47.2396 0 43.8958 0 39.4375C0 35.1667 1.11458 31.901 3.34375 29.6406C5 27.9635 6.96354 27.125 9.23438 27.125C12.0156 27.125 14.2292 28.2604 15.875 30.5312C17.5208 32.8021 18.3438 35.8594 18.3438 39.7031ZM11.5781 39.75C11.5781 35.3854 10.8073 33.2031 9.26562 33.2031C8.49479 33.2031 7.88021 33.776 7.42188 34.9219C6.97396 35.9844 6.75 37.5469 6.75 39.6094C6.75 41.6406 6.95833 43.2188 7.375 44.3438C7.80208 45.4583 8.39062 46.0156 9.14062 46.0156C9.91146 46.0156 10.5052 45.4635 10.9219 44.3594C11.3594 43.2552 11.5781 41.7188 11.5781 39.75Z" fill="#1E00FF"/>
<path d="M21.1406 51.6875V27.5625H28.7188C31.5521 27.5625 33.651 28.1875 35.0156 29.4375C36.401 30.7188 37.0938 32.375 37.0938 34.4062C37.0938 37.4271 35.5938 39.0625 32.5938 39.3125C34.3021 39.5625 35.5521 40.125 36.3438 41C37.1458 41.875 37.5469 43.1354 37.5469 44.7812C37.5469 46.8542 36.875 48.5208 35.5312 49.7812C34.1979 51.0521 32.4427 51.6875 30.2656 51.6875H21.1406ZM27.6562 46.4531C27.7812 46.4635 27.8906 46.474 27.9844 46.4844C28.0781 46.4844 28.1562 46.4844 28.2188 46.4844C29.0312 46.4844 29.6771 46.2708 30.1562 45.8438C30.6458 45.4167 30.8906 44.8438 30.8906 44.125C30.8906 43.4062 30.6458 42.8438 30.1562 42.4375C29.6771 42.0312 29.0156 41.8281 28.1719 41.8281H27.6562V46.4531ZM27.6562 36.9375H28.0938C28.875 36.9375 29.4896 36.7552 29.9375 36.3906C30.3958 36.026 30.625 35.5156 30.625 34.8594C30.625 33.4635 29.8594 32.7656 28.3281 32.7656C28.2552 32.7656 28.1615 32.7708 28.0469 32.7812C27.9427 32.7812 27.8125 32.7865 27.6562 32.7969V36.9375Z" fill="#1E00FF"/>
<path d="M39.8125 51.0938V43.5156C41.0938 45.2656 42.4792 46.1406 43.9688 46.1406C44.5312 46.1406 44.9896 45.9948 45.3438 45.7031C45.6979 45.401 45.875 45.026 45.875 44.5781C45.875 43.9323 45.4896 43.3021 44.7188 42.6875L43.6562 41.8594C42.9479 41.3281 42.3438 40.8021 41.8438 40.2812C41.3438 39.75 40.9375 39.2083 40.625 38.6562C40.3125 38.0938 40.0833 37.5156 39.9375 36.9219C39.7917 36.3281 39.7188 35.7031 39.7188 35.0469C39.7188 33.9219 39.9792 32.7448 40.5 31.5156C40.7604 30.9427 41.0625 30.4219 41.4062 29.9531C41.75 29.474 42.1458 29.0521 42.5938 28.6875C43.8229 27.6458 45.3073 27.125 47.0469 27.125C48.599 27.125 50.1615 27.5365 51.7344 28.3594V35.7344C51.2031 34.9115 50.599 34.2656 49.9219 33.7969C49.2448 33.3177 48.5781 33.0781 47.9219 33.0781C47.4219 33.0781 47.0104 33.224 46.6875 33.5156C46.3542 33.7969 46.1875 34.1354 46.1875 34.5312C46.1875 35.1771 46.6302 35.8177 47.5156 36.4531L48.5469 37.2188C49.9219 38.2083 50.9062 39.224 51.5 40.2656C52.1042 41.3073 52.4062 42.526 52.4062 43.9219C52.4062 46.2969 51.6823 48.2552 50.2344 49.7969C48.7865 51.3385 46.9531 52.1094 44.7344 52.1094C43.2031 52.1094 41.5625 51.7708 39.8125 51.0938Z" fill="#1E00FF"/>
<path d="M54.9531 51.6875V27.5625H67.0625V33.2344H61.4688V36.75H66.4844V42.2031H61.4688V45.8906H67.0625V51.6875H54.9531Z" fill="#1E00FF"/>
<path d="M87.0156 51.6875H79.9688L76.75 43.0938C76.7188 42.9479 76.6615 42.7552 76.5781 42.5156C76.5052 42.276 76.4115 41.9896 76.2969 41.6562L76.3438 43.25V51.6875H69.8594V27.5625H76.5312C79.4688 27.5625 81.6667 28.1406 83.125 29.2969C84.9792 30.776 85.9062 32.8802 85.9062 35.6094C85.9062 38.526 84.6615 40.5417 82.1719 41.6562L87.0156 51.6875ZM76.375 38.7344H76.8125C77.5625 38.7344 78.1875 38.4479 78.6875 37.875C79.1875 37.3021 79.4375 36.5729 79.4375 35.6875C79.4375 33.8854 78.4948 32.9844 76.6094 32.9844H76.375V38.7344Z" fill="#1E00FF"/>
<path d="M99.1562 51.6875H92.5156L86.9844 27.5625H93.8281L95.0156 34.4531C95.4635 37.0885 95.8229 40.0365 96.0938 43.2969C96.2083 41.849 96.349 40.4948 96.5156 39.2344C96.6823 37.974 96.8802 36.7448 97.1094 35.5469L98.6562 27.5625H105.734L99.1562 51.6875Z" fill="#1E00FF"/>
<path d="M107.422 51.6875V27.5625H119.531V33.2344H113.938V36.75H118.953V42.2031H113.938V45.8906H119.531V51.6875H107.422Z" fill="#1E00FF"/>
<path d="M139.484 51.6875H132.438L129.219 43.0938C129.188 42.9479 129.13 42.7552 129.047 42.5156C128.974 42.276 128.88 41.9896 128.766 41.6562L128.812 43.25V51.6875H122.328V27.5625H129C131.938 27.5625 134.135 28.1406 135.594 29.2969C137.448 30.776 138.375 32.8802 138.375 35.6094C138.375 38.526 137.13 40.5417 134.641 41.6562L139.484 51.6875ZM128.844 38.7344H129.281C130.031 38.7344 130.656 38.4479 131.156 37.875C131.656 37.3021 131.906 36.5729 131.906 35.6875C131.906 33.8854 130.964 32.9844 129.078 32.9844H128.844V38.7344Z" fill="#1E00FF"/>
<path d="M15 19.7673V23.2204H5.11529V25.125H2L2 17.7881H5.11529V19.7673H15Z" fill="#1E00FF"/>
<path d="M15 8.33964V11.7928H9.77137V13.4407H15L15 16.8938H2L2 13.4407H6.59715V11.7928H2V8.33964L15 8.33964Z" fill="#1E00FF"/>
<path d="M15 6.54269L2 6.54269L2 0.125001L5.05635 0.125V3.08956H6.95078V0.431393L9.88925 0.431393V3.08956L11.8763 3.08956V0.125L15 0.125V6.54269Z" fill="#1E00FF"/>
</svg>
