<svg width="309" height="37" viewBox="0 0 309 37" fill="none" xmlns="http://www.w3.org/2000/svg">
<path d="M11.8722 28.8153C9.38636 28.8153 7.25852 28.3232 5.48864 27.3388C3.71875 26.3445 2.36151 24.9624 1.4169 23.1925C0.472301 21.4126 0 19.3494 0 17.0028C0 14.6563 0.472301 12.598 1.4169 10.8281C2.36151 9.0483 3.71875 7.66619 5.48864 6.68182C7.25852 5.6875 9.38636 5.19034 11.8722 5.19034C14.1193 5.19034 16.0632 5.59801 17.7038 6.41335C19.3544 7.21875 20.6321 8.36222 21.5369 9.84375C22.4418 11.3153 22.8991 13.0455 22.9091 15.0341H15.2727C15.1634 13.831 14.8153 12.9162 14.2287 12.2898C13.652 11.6534 12.9063 11.3352 11.9915 11.3352C11.2756 11.3352 10.6491 11.544 10.1122 11.9616C9.57528 12.3693 9.15767 12.9908 8.85938 13.826C8.56108 14.6513 8.41193 15.6903 8.41193 16.9432C8.41193 18.196 8.56108 19.2401 8.85938 20.0753C9.15767 20.9006 9.57528 21.522 10.1122 21.9396C10.6491 22.3473 11.2756 22.5511 11.9915 22.5511C12.598 22.5511 13.1349 22.4119 13.6023 22.1335C14.0696 21.8452 14.4474 21.4276 14.7358 20.8807C15.0341 20.3239 15.2131 19.6477 15.2727 18.8523H22.9091C22.8793 20.8707 22.4169 22.6307 21.522 24.1321C20.6271 25.6236 19.3594 26.777 17.7188 27.5923C16.0881 28.4077 14.1392 28.8153 11.8722 28.8153Z" fill="#FF0004"/>
<path d="M37.3429 28.8153C34.8571 28.8153 32.7292 28.3232 30.9593 27.3388C29.1895 26.3445 27.8322 24.9624 26.8876 23.1925C25.943 21.4126 25.4707 19.3494 25.4707 17.0028C25.4707 14.6563 25.943 12.598 26.8876 10.8281C27.8322 9.0483 29.1895 7.66619 30.9593 6.68182C32.7292 5.6875 34.8571 5.19034 37.3429 5.19034C39.8287 5.19034 41.9565 5.6875 43.7264 6.68182C45.4963 7.66619 46.8535 9.0483 47.7981 10.8281C48.7427 12.598 49.215 14.6563 49.215 17.0028C49.215 19.3494 48.7427 21.4126 47.7981 23.1925C46.8535 24.9624 45.4963 26.3445 43.7264 27.3388C41.9565 28.3232 39.8287 28.8153 37.3429 28.8153ZM37.4025 22.7301C38.0985 22.7301 38.7001 22.4964 39.2072 22.0291C39.7143 21.5618 40.1071 20.8956 40.3855 20.0305C40.6639 19.1655 40.8031 18.1364 40.8031 16.9432C40.8031 15.7401 40.6639 14.7109 40.3855 13.8558C40.1071 12.9908 39.7143 12.3246 39.2072 11.8572C38.7001 11.3899 38.0985 11.1562 37.4025 11.1562C36.6667 11.1562 36.0353 11.3899 35.5083 11.8572C34.9814 12.3246 34.5787 12.9908 34.3002 13.8558C34.0218 14.7109 33.8826 15.7401 33.8826 16.9432C33.8826 18.1364 34.0218 19.1655 34.3002 20.0305C34.5787 20.8956 34.9814 21.5618 35.5083 22.0291C36.0353 22.4964 36.6667 22.7301 37.4025 22.7301Z" fill="#FF0004"/>
<path d="M60.7889 15.5114V28.3977H52.5559V5.48864H60.3713V9.84375H60.6099C61.1071 8.39205 61.9821 7.25355 63.2349 6.42827C64.4977 5.60298 65.9693 5.19034 67.6497 5.19034C69.2704 5.19034 70.6774 5.56321 71.8706 6.30895C73.0737 7.04474 74.0034 8.05895 74.6596 9.35156C75.3258 10.6442 75.6539 12.1207 75.644 13.7812V28.3977H67.411V15.5114C67.421 14.3778 67.1326 13.4879 66.546 12.8416C65.9693 12.1953 65.1639 11.8722 64.1298 11.8722C63.4537 11.8722 62.862 12.0213 62.3549 12.3196C61.8578 12.608 61.475 13.0256 61.2065 13.5724C60.938 14.1094 60.7988 14.7557 60.7889 15.5114Z" fill="#FF0004"/>
<path d="M93.3702 5.48864V11.4545H78.2765V5.48864H93.3702ZM81.1998 0H89.4327V21.0298C89.4327 21.348 89.4874 21.6165 89.5968 21.8352C89.7061 22.044 89.8752 22.2031 90.1039 22.3125C90.3326 22.4119 90.6259 22.4616 90.9838 22.4616C91.2324 22.4616 91.5208 22.4318 91.8489 22.3722C92.187 22.3125 92.4355 22.2628 92.5946 22.223L93.7878 28.0099C93.4199 28.1193 92.8929 28.2536 92.2069 28.4126C91.5307 28.5717 90.7253 28.6761 89.7907 28.7259C87.9015 28.8253 86.3155 28.6314 85.0328 28.1442C83.7502 27.647 82.7857 26.8665 82.1394 25.8026C81.4931 24.7386 81.1799 23.4062 81.1998 21.8054V0Z" fill="#FF0004"/>
<path d="M107.461 28.8153C105.015 28.8153 102.907 28.348 101.137 27.4134C99.3771 26.4688 98.0199 25.1165 97.0653 23.3565C96.1207 21.5866 95.6484 19.4688 95.6484 17.0028C95.6484 14.6364 96.1257 12.5682 97.0803 10.7983C98.0348 9.02841 99.3821 7.65128 101.122 6.6669C102.862 5.68253 104.915 5.19034 107.282 5.19034C109.012 5.19034 110.578 5.45881 111.98 5.99574C113.382 6.53267 114.58 7.31321 115.575 8.33736C116.569 9.35156 117.335 10.5845 117.871 12.0362C118.408 13.4879 118.677 15.1236 118.677 16.9432V18.8523H98.2138V14.3182H111.1C111.09 13.6619 110.921 13.0852 110.593 12.5881C110.275 12.081 109.842 11.6882 109.295 11.4098C108.759 11.1214 108.147 10.9773 107.461 10.9773C106.795 10.9773 106.183 11.1214 105.626 11.4098C105.07 11.6882 104.622 12.076 104.284 12.5732C103.956 13.0703 103.782 13.652 103.762 14.3182V19.2102C103.762 19.946 103.916 20.6023 104.224 21.179C104.533 21.7557 104.975 22.2081 105.552 22.5362C106.129 22.8643 106.825 23.0284 107.64 23.0284C108.207 23.0284 108.724 22.9489 109.191 22.7898C109.668 22.6307 110.076 22.402 110.414 22.1037C110.752 21.7955 111.001 21.4276 111.16 21H118.677C118.418 22.5909 117.807 23.973 116.842 25.1463C115.878 26.3097 114.6 27.2145 113.009 27.8608C111.428 28.4972 109.579 28.8153 107.461 28.8153Z" fill="#FF0004"/>
<path d="M122.036 28.3977V5.48864H129.852V9.84375H130.09C130.568 8.41193 131.383 7.27841 132.536 6.44318C133.69 5.60795 135.062 5.19034 136.653 5.19034C138.264 5.19034 139.651 5.6179 140.814 6.47301C141.977 7.31818 142.678 8.44176 142.917 9.84375H143.156C143.544 8.44176 144.369 7.31818 145.632 6.47301C146.894 5.6179 148.376 5.19034 150.076 5.19034C152.274 5.19034 154.053 5.89631 155.416 7.30824C156.788 8.72017 157.474 10.5994 157.474 12.946V28.3977H149.241V15.0341C149.241 14.0298 148.987 13.2443 148.48 12.6776C147.973 12.1009 147.292 11.8125 146.437 11.8125C145.592 11.8125 144.921 12.1009 144.423 12.6776C143.936 13.2443 143.693 14.0298 143.693 15.0341V28.3977H135.818V15.0341C135.818 14.0298 135.564 13.2443 135.057 12.6776C134.55 12.1009 133.869 11.8125 133.014 11.8125C132.447 11.8125 131.96 11.9418 131.552 12.2003C131.144 12.4588 130.826 12.8317 130.597 13.3189C130.379 13.7962 130.269 14.3679 130.269 15.0341V28.3977H122.036Z" fill="#FF0004"/>
<path d="M161.534 36.9886V5.48864H169.708V9.4858H169.887C170.185 8.71023 170.623 7.99929 171.199 7.35298C171.776 6.69673 172.492 6.17471 173.347 5.78693C174.202 5.3892 175.196 5.19034 176.33 5.19034C177.841 5.19034 179.278 5.59304 180.64 6.39844C182.012 7.20383 183.126 8.47159 183.981 10.2017C184.846 11.9318 185.279 14.179 185.279 16.9432C185.279 19.5881 184.866 21.7805 184.041 23.5206C183.225 25.2607 182.132 26.5582 180.76 27.4134C179.397 28.2685 177.901 28.696 176.27 28.696C175.196 28.696 174.237 28.522 173.392 28.174C172.556 27.8161 171.841 27.3338 171.244 26.7273C170.657 26.1108 170.205 25.4148 169.887 24.6392H169.767V36.9886H161.534ZM169.588 16.9432C169.588 18.0568 169.733 19.0213 170.021 19.8366C170.319 20.642 170.737 21.2685 171.274 21.7159C171.821 22.1534 172.472 22.3722 173.228 22.3722C173.983 22.3722 174.625 22.1584 175.152 21.7308C175.689 21.2933 176.096 20.6719 176.375 19.8665C176.663 19.0511 176.807 18.0767 176.807 16.9432C176.807 15.8097 176.663 14.8402 176.375 14.0348C176.096 13.2195 175.689 12.598 175.152 12.1705C174.625 11.733 173.983 11.5142 173.228 11.5142C172.472 11.5142 171.821 11.733 171.274 12.1705C170.737 12.598 170.319 13.2195 170.021 14.0348C169.733 14.8402 169.588 15.8097 169.588 16.9432Z" fill="#FF0004"/>
<path d="M199.765 28.8153C197.279 28.8153 195.151 28.3232 193.381 27.3388C191.611 26.3445 190.254 24.9624 189.309 23.1925C188.365 21.4126 187.893 19.3494 187.893 17.0028C187.893 14.6563 188.365 12.598 189.309 10.8281C190.254 9.0483 191.611 7.66619 193.381 6.68182C195.151 5.6875 197.279 5.19034 199.765 5.19034C202.251 5.19034 204.378 5.6875 206.148 6.68182C207.918 7.66619 209.275 9.0483 210.22 10.8281C211.165 12.598 211.637 14.6563 211.637 17.0028C211.637 19.3494 211.165 21.4126 210.22 23.1925C209.275 24.9624 207.918 26.3445 206.148 27.3388C204.378 28.3232 202.251 28.8153 199.765 28.8153ZM199.824 22.7301C200.52 22.7301 201.122 22.4964 201.629 22.0291C202.136 21.5618 202.529 20.8956 202.807 20.0305C203.086 19.1655 203.225 18.1364 203.225 16.9432C203.225 15.7401 203.086 14.7109 202.807 13.8558C202.529 12.9908 202.136 12.3246 201.629 11.8572C201.122 11.3899 200.52 11.1562 199.824 11.1562C199.089 11.1562 198.457 11.3899 197.93 11.8572C197.403 12.3246 197.001 12.9908 196.722 13.8558C196.444 14.7109 196.305 15.7401 196.305 16.9432C196.305 18.1364 196.444 19.1655 196.722 20.0305C197.001 20.8956 197.403 21.5618 197.93 22.0291C198.457 22.4964 199.089 22.7301 199.824 22.7301Z" fill="#FF0004"/>
<path d="M214.978 28.3977V5.48864H222.972V9.84375H223.211C223.628 8.23295 224.29 7.05469 225.194 6.30895C226.109 5.56321 227.178 5.19034 228.401 5.19034C228.759 5.19034 229.112 5.22017 229.46 5.27983C229.818 5.32955 230.161 5.40412 230.489 5.50355V12.5284C230.081 12.3892 229.579 12.2848 228.983 12.2152C228.386 12.1456 227.874 12.1108 227.447 12.1108C226.641 12.1108 225.915 12.2947 225.269 12.6626C224.633 13.0206 224.131 13.5277 223.763 14.1839C223.395 14.8303 223.211 15.5909 223.211 16.4659V28.3977H214.978Z" fill="#FF0004"/>
<path d="M238.506 28.7557C237.044 28.7557 235.752 28.517 234.628 28.0398C233.514 27.5526 232.639 26.8168 232.003 25.8324C231.367 24.848 231.048 23.5952 231.048 22.0739C231.048 20.821 231.262 19.7521 231.69 18.8672C232.117 17.9723 232.714 17.2415 233.48 16.6747C234.245 16.108 235.135 15.6754 236.149 15.3771C237.173 15.0788 238.277 14.8849 239.46 14.7955C240.743 14.696 241.772 14.5767 242.548 14.4375C243.333 14.2884 243.9 14.0845 244.248 13.826C244.596 13.5575 244.77 13.2045 244.77 12.767V12.7074C244.77 12.1108 244.541 11.6534 244.084 11.3352C243.627 11.017 243.04 10.858 242.324 10.858C241.539 10.858 240.897 11.032 240.4 11.38C239.913 11.718 239.619 12.2401 239.52 12.946H231.943C232.043 11.554 232.485 10.2713 233.271 9.09801C234.066 7.91477 235.225 6.97017 236.746 6.26421C238.267 5.5483 240.166 5.19034 242.443 5.19034C244.084 5.19034 245.556 5.38423 246.858 5.77202C248.161 6.14986 249.269 6.68182 250.184 7.3679C251.099 8.04403 251.795 8.83949 252.272 9.75426C252.759 10.6591 253.003 11.6435 253.003 12.7074V28.3977H245.307V25.1761H245.128C244.671 26.0312 244.114 26.7223 243.458 27.2493C242.811 27.7763 242.07 28.1591 241.235 28.3977C240.41 28.6364 239.5 28.7557 238.506 28.7557ZM241.191 23.5653C241.817 23.5653 242.404 23.4361 242.95 23.1776C243.507 22.919 243.96 22.5462 244.308 22.0589C244.656 21.5717 244.83 20.9801 244.83 20.2841V18.375C244.611 18.4645 244.377 18.549 244.129 18.6286C243.89 18.7081 243.632 18.7827 243.353 18.8523C243.085 18.9219 242.796 18.9865 242.488 19.0462C242.19 19.1058 241.877 19.1605 241.548 19.2102C240.912 19.3097 240.39 19.4737 239.982 19.7024C239.585 19.9212 239.286 20.1946 239.088 20.5227C238.899 20.8409 238.804 21.1989 238.804 21.5966C238.804 22.233 239.028 22.7202 239.475 23.0582C239.923 23.3963 240.494 23.5653 241.191 23.5653Z" fill="#FF0004"/>
<path d="M256.937 28.3977V5.48864H264.931V9.84375H265.17C265.587 8.23295 266.249 7.05469 267.153 6.30895C268.068 5.56321 269.137 5.19034 270.36 5.19034C270.718 5.19034 271.071 5.22017 271.419 5.27983C271.777 5.32955 272.12 5.40412 272.448 5.50355V12.5284C272.04 12.3892 271.538 12.2848 270.942 12.2152C270.345 12.1456 269.833 12.1108 269.406 12.1108C268.6 12.1108 267.874 12.2947 267.228 12.6626C266.592 13.0206 266.089 13.5277 265.722 14.1839C265.354 14.8303 265.17 15.5909 265.17 16.4659V28.3977H256.937Z" fill="#FF0004"/>
<path d="M280.856 36.9886C279.912 36.9886 279.012 36.9141 278.157 36.7649C277.302 36.6257 276.551 36.4318 275.905 36.1832L277.694 30.3366C278.371 30.5753 278.987 30.7294 279.544 30.799C280.111 30.8686 280.593 30.8288 280.991 30.6797C281.398 30.5305 281.692 30.2472 281.871 29.8295L282.05 29.4119L273.996 5.48864H282.586L286.285 21.358H286.524L290.283 5.48864H298.933L290.581 30.3068C290.163 31.5696 289.557 32.7031 288.761 33.7074C287.976 34.7216 286.942 35.522 285.659 36.1087C284.376 36.6953 282.775 36.9886 280.856 36.9886Z" fill="#FF0004"/>
<path d="M304.314 28.875C303.16 28.875 302.171 28.4723 301.346 27.6669C300.53 26.8516 300.127 25.8622 300.137 24.6989C300.127 23.5653 300.53 22.5959 301.346 21.7905C302.171 20.9851 303.16 20.5824 304.314 20.5824C305.407 20.5824 306.372 20.9851 307.207 21.7905C308.052 22.5959 308.48 23.5653 308.49 24.6989C308.48 25.4744 308.276 26.1804 307.878 26.8168C307.49 27.4432 306.983 27.9453 306.357 28.3232C305.73 28.6911 305.049 28.875 304.314 28.875Z" fill="#FF0004"/>
</svg>
