<svg width="372" height="79" viewBox="0 0 372 79" fill="none" xmlns="http://www.w3.org/2000/svg">
<path d="M52.3438 50.5H46.1562L39.0469 40.4375L36.75 42.7969V50.5H32.0156V27.4688H36.75V36.9531L45.6406 27.4688H51.8594L42.4219 36.9531L52.3438 50.5Z" fill="black"/>
<path d="M81.4875 41.625V27.4688H86.3781V41.625C86.3781 44.0729 85.9979 45.9792 85.2375 47.3438C83.8208 49.8438 81.1177 51.0938 77.1281 51.0938C73.1385 51.0938 70.4302 49.8438 69.0031 47.3438C68.2427 45.9792 67.8625 44.0729 67.8625 41.625V27.4688H72.7531V41.625C72.7531 43.2083 72.9406 44.3646 73.3156 45.0938C73.899 46.3854 75.1698 47.0312 77.1281 47.0312C79.076 47.0312 80.3417 46.3854 80.925 45.0938C81.3 44.3646 81.4875 43.2083 81.4875 41.625Z" fill="black"/>
<path d="M122.412 50.5H117.6L108.194 34.1406V50.5H103.709V27.4688H108.756L117.928 43.5469V27.4688H122.412V50.5Z" fill="black"/>
<path d="M148.072 47.1719C149.207 47.1719 150.129 47.0469 150.837 46.7969C152.181 46.3177 152.853 45.4271 152.853 44.125C152.853 43.3646 152.52 42.776 151.853 42.3594C151.186 41.9531 150.14 41.5938 148.712 41.2812L146.275 40.7344C143.879 40.1927 142.223 39.6042 141.306 38.9688C139.754 37.9062 138.978 36.2448 138.978 33.9844C138.978 31.9219 139.728 30.2083 141.228 28.8438C142.728 27.4792 144.931 26.7969 147.837 26.7969C150.265 26.7969 152.332 27.4427 154.041 28.7344C155.759 30.0156 156.66 31.8802 156.744 34.3281H152.119C152.035 32.9427 151.431 31.9583 150.306 31.375C149.556 30.9896 148.624 30.7969 147.509 30.7969C146.27 30.7969 145.28 31.0469 144.541 31.5469C143.801 32.0469 143.431 32.7448 143.431 33.6406C143.431 34.4635 143.796 35.0781 144.525 35.4844C144.994 35.7552 145.994 36.0729 147.525 36.4375L151.494 37.3906C153.233 37.8073 154.546 38.3646 155.431 39.0625C156.806 40.1458 157.494 41.7135 157.494 43.7656C157.494 45.8698 156.686 47.6198 155.072 49.0156C153.468 50.401 151.197 51.0938 148.259 51.0938C145.259 51.0938 142.9 50.4115 141.181 49.0469C139.462 47.6719 138.603 45.7865 138.603 43.3906H143.197C143.343 44.4427 143.629 45.2292 144.056 45.75C144.837 46.6979 146.176 47.1719 148.072 47.1719Z" fill="black"/>
<path d="M190.591 27.4688V31.5469H183.7V50.5H178.856V31.5469H171.934V27.4688H190.591Z" fill="black"/>
<path d="M216 41.4688H211.031V50.5H206.328V27.4688H217.625C219.24 27.5 220.479 27.6979 221.344 28.0625C222.219 28.4271 222.958 28.9635 223.562 29.6719C224.062 30.2552 224.458 30.901 224.75 31.6094C225.042 32.3177 225.188 33.125 225.188 34.0312C225.188 35.125 224.911 36.2031 224.359 37.2656C223.807 38.3177 222.896 39.0625 221.625 39.5C222.688 39.9271 223.438 40.5365 223.875 41.3281C224.323 42.1094 224.547 43.3073 224.547 44.9219V46.4688C224.547 47.5208 224.589 48.2344 224.672 48.6094C224.797 49.2031 225.089 49.6406 225.547 49.9219V50.5H220.25C220.104 49.9896 220 49.5781 219.938 49.2656C219.812 48.6198 219.745 47.9583 219.734 47.2812L219.703 45.1406C219.682 43.6719 219.411 42.6927 218.891 42.2031C218.38 41.7135 217.417 41.4688 216 41.4688ZM218.922 37.2812C219.88 36.8438 220.359 35.9792 220.359 34.6875C220.359 33.2917 219.896 32.3542 218.969 31.875C218.448 31.6042 217.667 31.4688 216.625 31.4688H211.031V37.6562H216.484C217.568 37.6562 218.38 37.5312 218.922 37.2812Z" fill="black"/>
<path d="M255.628 45.7656H247.144L245.55 50.5H240.519L248.738 27.4688H254.175L262.331 50.5H257.112L255.628 45.7656ZM254.284 41.7969L251.409 32.7344L248.441 41.7969H254.284ZM252.503 21.625H256.581V25.3281H252.503V21.625ZM246.253 21.625H250.331V25.3281H246.253V21.625Z" fill="black"/>
<path d="M291.694 41.625V27.4688H296.584V41.625C296.584 44.0729 296.204 45.9792 295.444 47.3438C294.027 49.8438 291.324 51.0938 287.334 51.0938C283.345 51.0938 280.636 49.8438 279.209 47.3438C278.449 45.9792 278.069 44.0729 278.069 41.625V27.4688H282.959V41.625C282.959 43.2083 283.147 44.3646 283.522 45.0938C284.105 46.3854 285.376 47.0312 287.334 47.0312C289.282 47.0312 290.548 46.3854 291.131 45.0938C291.506 44.3646 291.694 43.2083 291.694 41.625Z" fill="black"/>
<path d="M318.4 50.5H313.916V27.4688H320.916L325.103 45.5781L329.259 27.4688H336.181V50.5H331.697V34.9219C331.697 34.474 331.702 33.849 331.712 33.0469C331.723 32.2344 331.728 31.6094 331.728 31.1719L327.369 50.5H322.697L318.369 31.1719C318.369 31.6094 318.374 32.2344 318.384 33.0469C318.395 33.849 318.4 34.474 318.4 34.9219V50.5Z" fill="black"/>
<path d="M369.481 40.4375H358.294V46.3594H371.044V50.5H353.591V27.4688H370.481V31.5469H358.294V36.4375H369.481V40.4375Z" fill="black"/>
<path d="M79 0V20.5127H74V5H5V74H74V57.2695H79V79H0V0H79Z" fill="black"/>
</svg>
