<svg width="298" height="56" viewBox="0 0 298 56" fill="none" xmlns="http://www.w3.org/2000/svg">
<path d="M29 0L36.8144 19.7368L58 21.0697L41.644 34.6007L46.923 55.1613L29 43.7871L11.077 55.1613L16.356 34.6007L0 21.0697L21.1856 19.7368L29 0Z" fill="#FFB100"/>
<path d="M89 0L96.8144 19.7368L118 21.0697L101.644 34.6007L106.923 55.1613L89 43.7871L71.077 55.1613L76.356 34.6007L60 21.0697L81.1856 19.7368L89 0Z" fill="#E4E4E4"/>
<path d="M149 0L156.814 19.7368L178 21.0697L161.644 34.6007L166.923 55.1613L149 43.7871L131.077 55.1613L136.356 34.6007L120 21.0697L141.186 19.7368L149 0Z" fill="#E4E4E4"/>
<path d="M209 0L216.814 19.7368L238 21.0697L221.644 34.6007L226.923 55.1613L209 43.7871L191.077 55.1613L196.356 34.6007L180 21.0697L201.186 19.7368L209 0Z" fill="#E4E4E4"/>
<path d="M269 0L276.814 19.7368L298 21.0697L281.644 34.6007L286.923 55.1613L269 43.7871L251.077 55.1613L256.356 34.6007L240 21.0697L261.186 19.7368L269 0Z" fill="#E4E4E4"/>
</svg>
